# xmcd CD database file
#
# Track frame offsets:
#	150
#	16207
#	32692
#	47647
#	65999
#	81299
#	97799
#	124874
#	147599
#
# Disc length: 2543 seconds
#
# Revision: 1
# Processed by: cddbd v1.5.2PL0 Copyright (c) Steve Scherf et al.
# Submitted via: CDex 1.70beta2
#
DISCID=7809ed09
DTITLE=Johnny Hodges - Blues-A-Plenty
DYEAR=1958
DGENRE=Jazz
TTITLE0=I Didn't Know About You
TTITLE1=Cool Your Motor
TTITLE2=Gone With The Wind
TTITLE3=Honey Hill
TTITLE4=Blues-A-Plenty
TTITLE5=Don't Take Your Love From Me
TTITLE6=Saturday Afternoon Blues
TTITLE7=Satin Doll
TTITLE8=Reeling And Rocking
EXTD=YEAR: 1958
EXTT0=
EXTT1=
EXTT2=
EXTT3=
EXTT4=
EXTT5=
EXTT6=
EXTT7=
EXTT8=
PLAYORDER=
